<?xml version="1.0" encoding="utf-8"?>
<!-- Created for GraphIoT: https://github.com/philipdaubmeier/GraphIoT -->
<!DOCTYPE svg PUBLIC "-//W3C//DTD SVG 1.1//EN" "http://www.w3.org/Graphics/SVG/1.1/DTD/svg11.dtd">
<svg version="1.1" id="Ebene_1" xmlns="http://www.w3.org/2000/svg" xmlns:xlink="http://www.w3.org/1999/xlink" x="0px" y="0px"
 width="480px" height="200px" viewBox="-345.5 418.5 480 200" enable-background="new -345.5 418.5 480 200" xml:space="preserve">
<path fill="#AAD400" d="M-335.715,420.5c-4.564,0-8.238,3.673-8.238,8.236v180.525c0,4.564,3.674,8.238,8.238,8.238h460.676
 c4.563,0,8.236-3.674,8.236-8.238V428.736c0-4.564-3.673-8.236-8.236-8.236H-335.715z"/>
<g fill="#333">
 <path d="M-145.639,506.255c-8.159,0-14.889,6.688-14.889,14.889s6.729,14.889,14.889,14.889
 c3.785,0,7.277-1.43,9.884-3.785v3.618h0.84v-14.721h-11.145v0.674l10.305,0.167v9.127c-2.523,2.524-6.016,4.08-9.885,4.08
 c-7.697,0-14.047-6.31-14.047-14.049s6.35-14.048,14.047-14.048c3.87,0,7.402,1.598,9.926,4.122l0.59-0.588
 C-137.815,507.938-141.518,506.254-145.639,506.255L-145.639,506.255z M9.409,506.255c-8.201,0-14.889,6.688-14.889,14.889
 c0,8.202,6.688,14.889,14.889,14.889c8.202,0,14.889-6.687,14.889-14.889S17.611,506.255,9.409,506.255z M-127.584,506.423v29.441
 h0.842v-12.197h11.566c0.631,0,1.261-0.085,1.85-0.211l7.487,12.408h0.968l-7.613-12.66c3.449-1.136,5.93-4.373,5.93-8.158
 c0-4.753-3.868-8.623-8.621-8.623H-127.584z M-90.508,506.423l-11.607,29.441h0.883l4.08-10.305h14.301l4.078,10.305h0.885
 l-11.609-29.441H-90.508z M-72.217,506.423v29.441h0.84v-12.197h10.725c4.754,0,8.623-3.868,8.623-8.621s-3.87-8.623-8.623-8.623
 H-72.217z M-45.85,506.423v29.441h0.842v-14.299h21.871v14.299h0.84v-29.441h-0.84v14.301h-21.871v-14.301H-45.85z
 M-13.318,506.423v29.441h0.84v-29.441H-13.318z M25.819,506.423v0.842h11.775v28.6h0.842v-28.6h11.775v-0.842H25.819z
 M9.409,507.097c7.738,0,14.047,6.308,14.047,14.047s-6.309,14.05-14.047,14.05c-7.739,0-14.048-6.311-14.048-14.05
 C-4.639,513.405,1.67,507.097,9.409,507.097z M-126.742,507.265h11.566c4.29,0,7.781,3.491,7.781,7.781s-3.491,7.781-7.781,7.781
 h-11.566V507.265z M-71.375,507.265h10.725c4.289,0,7.781,3.491,7.781,7.781s-3.491,7.781-7.781,7.781h-10.725V507.265z
 M-90,507.392l6.813,17.328h-13.627L-90,507.392z"/>
 <polygon opacity="0.2" points="-190.166,507.183 -197.028,515.19 -207.727,518.079 -217.722,515.226 
 -225.773,518.103 -232.861,512.432 -238.87,518.022 -240.976,516.145 -250.364,512.103 -260.167,510.783 -260.167,522.19 
 -254.583,523.513 -250.313,517.536 -241.004,520.555 -238.864,518.563 -232.897,523.891 -225.765,525.522 -217.738,523.646 
 -207.708,528.52 -196.86,520.56 -190.092,518.576 -179.947,526.329 -179.947,503.867 "/>
 <polygon opacity="0.36" points="-179.947,525.826 -190.01,518.135 -197.034,520.206 -207.75,528.055 
 -217.691,523.225 -225.765,525.133 -232.718,523.547 -238.87,518.022 -241.105,520.102 -250.468,517.065 -254.752,523.062 
 -260.167,521.779 -260.167,531.328 -254.583,523.513 -250.413,524.5 -241.131,525.513 -232.961,528.862 -225.837,533.55 
 -217.766,530.666 -212.332,536.027 -179.947,536.027 "/>
 <polygon opacity="0.49" points="-225.784,533.106 -232.775,528.511 -241.033,525.129 -250.345,524.106 
 -254.752,523.062 -260.167,530.64 -260.167,536.027 -211.762,536.027 -217.664,530.205 "/>
 <polygon points="-225.811,518.328 -217.715,515.436 -207.729,518.287 -196.916,515.367 -190.051,507.355 
 -179.947,504.078 -179.947,503.174 -180.212,503.26 -190.316,506.537 -190.546,506.611 -190.704,506.795 -197.396,514.605 
 -207.722,517.395 -217.479,514.608 -217.744,514.533 -218.004,514.625 -225.648,517.357 -232.314,512.023 -232.894,511.561 
 -233.438,512.066 -238.855,517.106 -240.46,515.666 -240.568,515.568 -240.702,515.511 -250.038,511.483 -250.15,511.436 
 -250.272,511.419 -260.048,510.103 -260.167,510.086 -260.167,510.984 -250.391,512.301 -241.055,516.328 -239.51,517.716 
 -241.271,519.354 -250.125,516.482 -250.724,516.289 -251.09,516.801 -255.025,522.309 -259.966,521.138 -260.167,521.09 
 -260.167,521.984 -255.571,523.073 -260.167,529.505 -260.167,530.984 -254.667,523.287 -250.391,524.301 -241.055,525.328 
 -232.852,528.695 -225.811,533.328 -217.715,530.436 -212.046,536.027 -210.828,536.027 -217.104,529.816 -217.493,529.433 
 -218.008,529.616 -225.695,532.363 -232.374,527.969 -232.443,527.922 -232.521,527.891 -240.724,524.523 -240.838,524.477 
 -240.959,524.463 -250.242,523.441 -254.121,522.522 -250.391,517.301 -241.055,520.328 -238.867,518.293 -232.852,523.695 
 -225.811,525.328 -217.715,523.436 -207.729,528.287 -196.916,520.367 -190.051,518.355 -179.947,526.078 -179.947,524.958 
 -189.51,517.648 -189.869,517.374 -190.301,517.501 -197.167,519.514 -197.316,519.557 -197.442,519.649 -207.822,527.252 
 -217.326,522.635 -217.61,522.497 -217.917,522.569 -225.812,524.414 -232.427,522.88 -238.213,517.684 -232.852,512.695 "/>
</g>
</svg>